<?xml version="1.0" encoding="UTF-8"?>
<!DOCTYPE svg PUBLIC "-//W3C//DTD SVG 1.1//EN" "http://www.w3.org/Graphics/SVG/1.1/DTD/svg11.dtd">
<svg xmlns="http://www.w3.org/2000/svg" version="1.1" width="300px" height="257px" style="shape-rendering:geometricPrecision; text-rendering:geometricPrecision; image-rendering:optimizeQuality; fill-rule:evenodd; clip-rule:evenodd" xmlns:xlink="http://www.w3.org/1999/xlink">
<g><path style="opacity:1" fill="#0ec3fe" d="M 144.5,4.5 C 197.284,4.96228 236.118,28.2956 261,74.5C 281.738,124.005 275.071,169.338 241,210.5C 199.475,251.119 151.641,260.619 97.5,239C 43.1854,209.538 20.3521,164.038 29,102.5C 41.6243,53.2087 72.4576,21.7087 121.5,8C 129.257,6.4469 136.924,5.28023 144.5,4.5 Z"/></g>
<g><path style="opacity:1" fill="#030509" d="M 198.5,44.5 C 216.172,44.0881 228.338,52.0881 235,68.5C 236.637,76.9145 234.97,84.5811 230,91.5C 217.694,103.394 205.528,115.394 193.5,127.5C 204.092,139.595 215.259,151.262 227,162.5C 237.24,178.744 234.74,192.911 219.5,205C 207.581,212.589 195.915,212.256 184.5,204C 169.629,188.13 154.462,172.63 139,157.5C 126.875,168.624 115.041,180.124 103.5,192C 86.9641,199.487 74.7975,194.987 67,178.5C 64.267,170.594 65.267,163.26 70,156.5C 80.0143,146.653 89.8477,136.653 99.5,126.5C 89.0848,116.515 78.9181,106.182 69,95.5C 64.0249,86.5639 64.3582,77.8973 70,69.5C 81.6731,54.9059 94.5065,53.7392 108.5,66C 118.681,76.3476 129.014,86.5143 139.5,96.5C 155.985,81.1827 172.318,65.6827 188.5,50C 191.767,47.8703 195.1,46.037 198.5,44.5 Z"/></g>
<g><path style="opacity:1" fill="#00c1fb" d="M 199.5,57.5 C 209.883,56.7767 217.383,61.11 222,70.5C 223.007,75.1113 222.34,79.4446 220,83.5C 204.84,97.6595 190.007,112.159 175.5,127C 188.563,142.067 202.397,156.567 217,170.5C 221.231,176.254 221.564,182.254 218,188.5C 214.234,194.116 209.068,197.449 202.5,198.5C 199.298,197.901 196.298,196.734 193.5,195C 178.317,179.318 163.317,163.485 148.5,147.5C 163.08,133.641 163.08,119.807 148.5,106C 165.396,89.6015 182.396,73.4348 199.5,57.5 Z"/></g>
<g><path style="opacity:1" fill="#00c0f9" d="M 86.5,68.5 C 91.3768,67.8124 95.7101,68.9791 99.5,72C 110.348,82.6807 121.014,93.5141 131.5,104.5C 121.128,114.345 118.628,126.012 124,139.5C 126.139,142.939 128.639,146.106 131.5,149C 119.833,160.667 108.167,172.333 96.5,184C 86.7632,186.547 79.9299,183.047 76,173.5C 75.1593,169.88 75.826,166.546 78,163.5C 90.3475,151.319 102.514,138.986 114.5,126.5C 100.867,114.032 88.0336,100.698 76,86.5C 75.1593,82.8798 75.826,79.5464 78,76.5C 80.7291,73.6007 83.5624,70.934 86.5,68.5 Z"/></g>
<g><path style="opacity:1" fill="#00bbf3" d="M 140.5,113.5 C 150.973,121.923 151.14,130.59 141,139.5C 131.206,131.104 131.039,122.437 140.5,113.5 Z"/></g>
</svg>
